<svg width="191" height="36" viewBox="0 0 191 36" fill="none" xmlns="http://www.w3.org/2000/svg">
<rect x="4.5" y="4.5" width="27" height="27" rx="3.375" fill="white"/>
<path d="M24.1875 15.1875C24.8088 15.1875 25.3125 15.6912 25.3125 16.3125V21.375C25.3125 21.9963 24.8088 22.5 24.1875 22.5H19.3711C19.3711 21.9952 18.7572 21.5859 18 21.5859C17.2428 21.5859 16.6289 21.9952 16.6289 22.5H11.8125C11.1912 22.5 10.6875 21.9963 10.6875 21.375V16.3125C10.6875 15.6912 11.1912 15.1875 11.8125 15.1875H24.1875ZM9.5625 15.75C9.87316 15.75 10.125 16.0018 10.125 16.3125V19.6875C10.125 19.9982 9.87316 20.25 9.5625 20.25C9.25184 20.25 9 19.9982 9 19.6875V16.3125C9 16.0018 9.25184 15.75 9.5625 15.75ZM26.4375 15.75C26.7482 15.75 27 16.0018 27 16.3125V19.6875C27 19.9982 26.7482 20.25 26.4375 20.25C26.1268 20.25 25.875 19.9982 25.875 19.6875V16.3125C25.875 16.0018 26.1268 15.75 26.4375 15.75ZM24.1875 13.5C24.4982 13.5 24.75 13.7518 24.75 14.0625C24.75 14.3732 24.4982 14.625 24.1875 14.625H11.8125C11.5018 14.625 11.25 14.3732 11.25 14.0625C11.25 13.7518 11.5018 13.5 11.8125 13.5H24.1875Z" fill="#2563EB"/>
<g clip-path="url(#clip0_13_871)">
<path d="M41.071 7.18182L46.7493 24.3551H46.973L52.6406 7.18182H56.9872L49.2955 29H44.4162L36.7351 7.18182H41.071ZM59.3905 29V12.6364H63.2471V29H59.3905ZM61.3294 10.3139C60.7186 10.3139 60.1931 10.1115 59.7527 9.70668C59.3124 9.29474 59.0922 8.80114 59.0922 8.22585C59.0922 7.64347 59.3124 7.14986 59.7527 6.74503C60.1931 6.3331 60.7186 6.12713 61.3294 6.12713C61.9473 6.12713 62.4729 6.3331 62.9061 6.74503C63.3465 7.14986 63.5667 7.64347 63.5667 8.22585C63.5667 8.80114 63.3465 9.29474 62.9061 9.70668C62.4729 10.1115 61.9473 10.3139 61.3294 10.3139ZM66.9128 29V12.6364H70.6521V15.3636H70.8226C71.1209 14.419 71.6322 13.6911 72.3567 13.1797C73.0882 12.6612 73.9227 12.402 74.8602 12.402C75.0733 12.402 75.3112 12.4126 75.574 12.4339C75.8439 12.4482 76.0676 12.473 76.2452 12.5085V16.0561C76.0818 15.9993 75.8226 15.9496 75.4675 15.907C75.1195 15.8572 74.7821 15.8324 74.4554 15.8324C73.7523 15.8324 73.1202 15.9851 72.5591 16.2905C72.0051 16.5888 71.5683 17.0043 71.2487 17.5369C70.9291 18.0696 70.7693 18.6839 70.7693 19.38V29H66.9128ZM87.5574 12.6364V15.6193H78.1504V12.6364H87.5574ZM80.4729 8.71591H84.3294V24.0781C84.3294 24.5966 84.4075 24.9943 84.5638 25.2713C84.7271 25.5412 84.9402 25.7259 85.203 25.8253C85.4658 25.9247 85.757 25.9744 86.0766 25.9744C86.318 25.9744 86.5382 25.9567 86.7371 25.9212C86.943 25.8857 87.0993 25.8537 87.2058 25.8253L87.8557 28.8402C87.6497 28.9112 87.355 28.9893 86.9714 29.0746C86.595 29.1598 86.1334 29.2095 85.5865 29.2237C84.6206 29.2521 83.7506 29.1065 82.9764 28.7869C82.2023 28.4602 81.5879 27.956 81.1334 27.2741C80.6859 26.5923 80.4658 25.7401 80.4729 24.7173V8.71591ZM100.912 22.1179V12.6364H104.769V29H101.03V26.0916H100.859C100.49 27.0078 99.8826 27.7571 99.0374 28.3395C98.1993 28.9219 97.1659 29.2131 95.9373 29.2131C94.8648 29.2131 93.9167 28.9751 93.0928 28.4993C92.276 28.0163 91.6368 27.3168 91.1752 26.4006C90.7135 25.4773 90.4827 24.3622 90.4827 23.0554V12.6364H94.3392V22.4588C94.3392 23.4957 94.6233 24.3196 95.1915 24.9304C95.7597 25.5412 96.5054 25.8466 97.4287 25.8466C97.9969 25.8466 98.5473 25.7081 99.08 25.4311C99.6127 25.1541 100.049 24.7422 100.39 24.1953C100.738 23.6413 100.912 22.9489 100.912 22.1179ZM113.143 29.3303C112.107 29.3303 111.173 29.1456 110.342 28.7763C109.518 28.3999 108.864 27.8459 108.381 27.1143C107.906 26.3828 107.668 25.4808 107.668 24.4084C107.668 23.4851 107.838 22.7216 108.179 22.1179C108.52 21.5142 108.985 21.0312 109.575 20.669C110.164 20.3068 110.828 20.0334 111.567 19.8487C112.313 19.657 113.083 19.5185 113.879 19.4332C114.837 19.3338 115.615 19.245 116.212 19.1669C116.808 19.0817 117.241 18.9538 117.511 18.7834C117.788 18.6058 117.927 18.3324 117.927 17.9631V17.8991C117.927 17.0966 117.689 16.4751 117.213 16.0348C116.737 15.5945 116.052 15.3743 115.157 15.3743C114.212 15.3743 113.463 15.5803 112.909 15.9922C112.362 16.4041 111.993 16.8906 111.801 17.4517L108.2 16.9403C108.484 15.946 108.953 15.1151 109.607 14.4474C110.26 13.7727 111.059 13.2685 112.004 12.9347C112.948 12.5938 113.992 12.4233 115.136 12.4233C115.924 12.4233 116.709 12.5156 117.49 12.7003C118.271 12.8849 118.985 13.1903 119.631 13.6165C120.278 14.0355 120.796 14.6072 121.187 15.3317C121.585 16.0561 121.783 16.9616 121.783 18.0483V29H118.076V26.7521H117.948C117.714 27.2067 117.384 27.6328 116.957 28.0305C116.538 28.4212 116.009 28.7372 115.37 28.9787C114.738 29.2131 113.996 29.3303 113.143 29.3303ZM114.145 26.4964C114.919 26.4964 115.59 26.3437 116.158 26.0384C116.727 25.7259 117.163 25.3139 117.469 24.8026C117.781 24.2912 117.938 23.7337 117.938 23.13V21.2017C117.817 21.3011 117.611 21.3935 117.32 21.4787C117.036 21.5639 116.716 21.6385 116.361 21.7024C116.006 21.7663 115.654 21.8232 115.306 21.8729C114.958 21.9226 114.656 21.9652 114.401 22.0007C113.825 22.0788 113.31 22.2067 112.856 22.3842C112.401 22.5618 112.043 22.8104 111.78 23.13C111.517 23.4425 111.386 23.8473 111.386 24.3445C111.386 25.0547 111.645 25.5909 112.163 25.9531C112.682 26.3153 113.342 26.4964 114.145 26.4964ZM129.218 7.18182V29H125.361V7.18182H129.218ZM140.195 29V7.18182H144.148V25.6868H153.757V29H140.195ZM161.426 29.3303C160.389 29.3303 159.455 29.1456 158.624 28.7763C157.8 28.3999 157.147 27.8459 156.664 27.1143C156.188 26.3828 155.95 25.4808 155.95 24.4084C155.95 23.4851 156.12 22.7216 156.461 22.1179C156.802 21.5142 157.268 21.0312 157.857 20.669C158.446 20.3068 159.111 20.0334 159.849 19.8487C160.595 19.657 161.366 19.5185 162.161 19.4332C163.12 19.3338 163.897 19.245 164.494 19.1669C165.091 19.0817 165.524 18.9538 165.794 18.7834C166.071 18.6058 166.209 18.3324 166.209 17.9631V17.8991C166.209 17.0966 165.971 16.4751 165.495 16.0348C165.02 15.5945 164.334 15.3743 163.439 15.3743C162.495 15.3743 161.745 15.5803 161.192 15.9922C160.645 16.4041 160.275 16.8906 160.084 17.4517L156.483 16.9403C156.767 15.946 157.236 15.1151 157.889 14.4474C158.542 13.7727 159.341 13.2685 160.286 12.9347C161.231 12.5938 162.275 12.4233 163.418 12.4233C164.206 12.4233 164.991 12.5156 165.772 12.7003C166.554 12.8849 167.268 13.1903 167.914 13.6165C168.56 14.0355 169.079 14.6072 169.469 15.3317C169.867 16.0561 170.066 16.9616 170.066 18.0483V29H166.358V26.7521H166.231C165.996 27.2067 165.666 27.6328 165.24 28.0305C164.821 28.4212 164.292 28.7372 163.652 28.9787C163.02 29.2131 162.278 29.3303 161.426 29.3303ZM162.427 26.4964C163.201 26.4964 163.873 26.3437 164.441 26.0384C165.009 25.7259 165.446 25.3139 165.751 24.8026C166.064 24.2912 166.22 23.7337 166.22 23.13V21.2017C166.099 21.3011 165.893 21.3935 165.602 21.4787C165.318 21.5639 164.998 21.6385 164.643 21.7024C164.288 21.7663 163.937 21.8232 163.589 21.8729C163.241 21.9226 162.939 21.9652 162.683 22.0007C162.108 22.0788 161.593 22.2067 161.138 22.3842C160.684 22.5618 160.325 22.8104 160.062 23.13C159.799 23.4425 159.668 23.8473 159.668 24.3445C159.668 25.0547 159.927 25.5909 160.446 25.9531C160.964 26.3153 161.625 26.4964 162.427 26.4964ZM173.814 29V7.18182H177.671V15.3423H177.83C178.029 14.9446 178.31 14.522 178.672 14.0746C179.034 13.62 179.524 13.233 180.142 12.9134C180.76 12.5866 181.548 12.4233 182.507 12.4233C183.771 12.4233 184.911 12.7464 185.927 13.3928C186.95 14.032 187.759 14.9801 188.356 16.2372C188.96 17.4872 189.262 19.0213 189.262 20.8395C189.262 22.6364 188.967 24.1634 188.377 25.4205C187.788 26.6776 186.985 27.6364 185.97 28.2969C184.954 28.9574 183.803 29.2876 182.518 29.2876C181.58 29.2876 180.803 29.1314 180.185 28.8189C179.567 28.5064 179.07 28.13 178.693 27.6896C178.324 27.2422 178.036 26.8196 177.83 26.4219H177.607V29H173.814ZM177.596 20.8182C177.596 21.8764 177.745 22.8033 178.044 23.5987C178.349 24.3942 178.786 25.0156 179.354 25.4631C179.929 25.9034 180.625 26.1236 181.442 26.1236C182.294 26.1236 183.008 25.8963 183.583 25.4418C184.159 24.9801 184.592 24.3516 184.883 23.5561C185.181 22.7536 185.33 21.8409 185.33 20.8182C185.33 19.8026 185.185 18.9006 184.894 18.1122C184.602 17.3239 184.169 16.706 183.594 16.2585C183.019 15.8111 182.301 15.5874 181.442 15.5874C180.618 15.5874 179.919 15.804 179.343 16.2372C178.768 16.6705 178.331 17.2777 178.033 18.0589C177.742 18.8402 177.596 19.7599 177.596 20.8182Z" fill="white"/>
</g>
<defs>
<clipPath id="clip0_13_871">
<rect width="155" height="36" fill="white" transform="translate(36)"/>
</clipPath>
</defs>
</svg>
